<?xml version="1.0" encoding="utf-8"?>
<!DOCTYPE svg PUBLIC "-//W3C//DTD SVG 1.1//EN" "http://www.w3.org/Graphics/SVG/1.1/DTD/svg11.dtd">
<svg version="1.1" id="Layer_1" xmlns="http://www.w3.org/2000/svg" xmlns:xlink="http://www.w3.org/1999/xlink" x="0px" y="0px"
	 width="28.775px" height="29.775px" viewBox="0 0 28.775 29.775" enable-background="new 0 0 28.775 29.775" xml:space="preserve">
<g id="layer1" >
	
		<g id="g30146" transform="matrix(0.01071962,0,0,0.01071962,4.5291625,4.5921813)">
		<g id="g30144" transform="matrix(1,0,0,-1,0,1920)">
			<path id="path30142" fill="#FFFFFF" d="M1723.574,1271.787
				c-72.879,0-142.566,14.211-208.977,42.543c-66.594,28.33-123.801,66.592-171.992,114.781
				c-48.191,48.191-86.453,105.764-114.785,172.084c-28.422,66.592-42.539,136.281-42.539,208.885
				c0,58.395,9.016,115.057,26.871,169.807c18.219,54.658,43.727,104.305,77.16,148.215c33.16,44.273,71.969,82.807,116.148,116.24
				c44.273,33.158,93.559,58.939,148.309,77.068c54.656,18.127,111.41,26.965,169.805,26.965
				c72.785,0,142.566-14.211,208.887-42.543c66.59-28.332,123.891-66.592,172.082-114.783
				c48.191-48.189,86.449-105.764,114.781-172.082c28.332-66.592,42.453-136.281,42.453-208.887
				c0-72.604-14.121-142.566-42.453-208.885c-28.332-66.592-66.59-123.893-114.781-172.084
				c-48.191-48.189-105.766-86.451-172.082-114.781C1866.141,1285.998,1796.359,1271.787,1723.574,1271.787L1723.574,1271.787z
				 M1657.254,1522.941c4.191-5.102,9.84-7.379,16.398-7.379s11.934,2.551,16.398,7.379l349.812,349.814
				c4.281,4.189,6.559,9.93,6.559,16.396c0,6.561-2.277,12.207-6.559,17.309l-129.812,129.814c-4.281,4.281-9.93,6.559-16.398,6.559
				c-6.559,0-11.934-2.277-16.488-6.559l-204.332-204.332l-78.527,79.346c-4.281,4.191-9.93,6.469-16.488,6.469
				c-6.465,0-12.207-2.277-17.309-6.469l-129.812-129.812c-4.191-5.102-6.469-10.477-6.469-16.762
				c0-6.195,2.277-11.934,6.469-16.672L1657.254,1522.941z M-329.211,1590.08c-25.508,0-47.371,9.111-65.773,27.512
				c-18.402,18.402-27.512,40.266-27.512,65.773v126.988H949.156c0-73.971,10.75-147.395,32.613-220.273H-329.211z M323.863-429.182
				v933.109L-329.211,1530.32h1331.66c39.625-102.666,98.656-192.488,176.273-269.557L697.18,503.928V-55.865L323.863-429.182z"/>
		</g>
	</g>
</g>
</svg>
